<svg width="798" height="592" viewBox="0 0 798 592" fill="none" xmlns="http://www.w3.org/2000/svg">
<path d="M678.013 70.8514H452.977V364.01H678.013V70.8514Z" fill="#FF8687"/>
<path d="M442.315 133.075L423.961 159.09L402.32 189.77L392.712 203.385L391.818 204.631L385.115 214.123L384.444 215.082L272.086 374.269L237.293 369.827L220.088 367.621L218.971 367.494L205.341 365.736L202.788 365.416L201.607 365.256L193.914 364.266L169.527 361.166L114.082 354.071L122.732 314.634L122.988 313.483L148.332 197.792L198.638 186.734L199.723 186.511L241.475 177.306L243.837 176.763L381.093 146.562L382.146 146.306L395.712 143.334L403.533 141.608L442.315 133.075Z" fill="#98DAF4"/>
<path d="M679.162 375.739H457.924C455.179 375.739 452.977 373.534 452.977 370.785V358.066C452.977 355.317 455.179 353.112 457.924 353.112H679.162C681.907 353.112 684.109 355.317 684.109 358.066V370.785C684.109 373.534 681.907 375.739 679.162 375.739Z" fill="#1B2638"/>
<path d="M122.988 313.483L205.341 365.736L202.788 365.416L122.732 314.634L122.988 313.483Z" fill="#B0ECFF"/>
<path d="M199.723 186.479L220.088 367.621L218.971 367.494L198.638 186.734L199.723 186.479Z" fill="#B0ECFF"/>
<path d="M243.837 176.763L385.115 214.123L384.444 215.082L241.475 177.306L243.837 176.763Z" fill="#B0ECFF"/>
<path d="M392.712 203.385L391.818 204.631L381.093 146.562L382.146 146.306L392.712 203.385Z" fill="#B0ECFF"/>
<path d="M202.883 349.245L201.575 365.256L193.882 364.266L169.495 361.134C170.58 325.436 190.307 259.505 190.307 259.505L202.883 349.245Z" fill="#82C0E0"/>
<path d="M163.686 482.002L138.565 487.531L161.962 466.758L185.327 445.953L177.986 476.409L170.612 506.834L163.686 482.002Z" fill="#98DAF4"/>
<path d="M355.174 174.398L367.016 180.694L350.737 181.046L334.426 181.429L347.609 171.809L360.76 162.19L355.174 174.398Z" fill="white"/>
<path d="M156.44 268.964C161.64 268.964 165.856 264.743 165.856 259.537C165.856 254.33 161.64 250.109 156.44 250.109C151.239 250.109 147.023 254.33 147.023 259.537C147.023 264.743 151.239 268.964 156.44 268.964Z" stroke="#65ABE0" stroke-width="4.8739" stroke-miterlimit="10"/>
<path d="M281.375 427.896V546.751" stroke="#1B2638" stroke-width="4.8739" stroke-miterlimit="10" stroke-linecap="round" stroke-linejoin="round"/>
<path d="M281.375 563.881C286.099 563.881 289.929 560.046 289.929 555.316C289.929 550.586 286.099 546.751 281.375 546.751C276.65 546.751 272.82 550.586 272.82 555.316C272.82 560.046 276.65 563.881 281.375 563.881Z" fill="#1B2638"/>
<path d="M211.374 563.881C216.099 563.881 219.929 560.046 219.929 555.316C219.929 550.586 216.099 546.751 211.374 546.751C206.65 546.751 202.82 550.586 202.82 555.316C202.82 560.046 206.65 563.881 211.374 563.881Z" fill="#1B2638"/>
<path d="M281.375 427.896L211.374 555.316" stroke="#1B2638" stroke-width="4.8739" stroke-miterlimit="10" stroke-linecap="round" stroke-linejoin="round"/>
<path d="M351.343 563.881C356.068 563.881 359.898 560.046 359.898 555.316C359.898 550.586 356.068 546.751 351.343 546.751C346.619 546.751 342.789 550.586 342.789 555.316C342.789 560.046 346.619 563.881 351.343 563.881Z" fill="#1B2638"/>
<path d="M281.375 427.896L351.343 555.316" stroke="#1B2638" stroke-width="4.8739" stroke-miterlimit="10" stroke-linecap="round" stroke-linejoin="round"/>
<path d="M603.288 562.347H532.489V530.58L547.268 519.266C547.268 519.266 565.942 517.956 577.688 520.129C589.403 522.302 596.361 534.479 596.361 534.479L603.288 562.347Z" fill="#FFDC4D"/>
<path d="M603.288 518.403C603.288 518.403 591.318 531.059 573.219 533.935C570.634 534.351 567.889 534.575 565.08 534.511L542.927 519.714C542.927 519.714 544.938 511.021 549.375 502.456C553.174 495.105 558.76 487.851 566.388 486.221L568.208 487.787L568.91 488.394L603.288 518.403Z" fill="white"/>
<path d="M573.219 533.935C570.634 534.351 567.889 534.575 565.08 534.511L542.927 519.714C542.927 519.714 544.938 511.021 549.375 502.456C557.834 493.955 565.495 489.289 568.208 487.819C568.878 487.467 574.815 493.571 574.815 493.571C574.815 493.571 561.026 520.64 573.219 533.935Z" fill="#DAE4EA"/>
<path d="M566.357 486.221L603.288 518.403C603.288 518.403 587.647 534.926 565.048 534.511L542.895 519.714C542.895 519.714 549.854 489.704 566.357 486.221Z" stroke="#1B2638" stroke-width="4.8739" stroke-miterlimit="10"/>
<path d="M188.104 312.652L184.083 236.974C184.083 236.974 221.333 199.869 270.65 213.899L329.606 339.977L453.519 425.083L451.125 433.904L357.121 439.912L240.996 419.459C240.996 419.459 234.995 423.07 220.152 394.179C205.309 365.256 191.488 349.213 191.488 349.213C191.488 349.213 189.988 329.686 189.796 328.344C189.605 326.97 187.051 316.04 188.104 312.652Z" fill="#FF5758"/>
<path d="M322.775 91.5287L341.001 85.904L325.009 102.682L309.017 119.429L312.593 96.5463L316.168 73.6318L322.775 91.5287Z" stroke="#1B2638" stroke-width="4.8739" stroke-miterlimit="10" stroke-linecap="round" stroke-linejoin="round"/>
<path d="M633.42 454.582L629.335 473.214L622.631 451.034L615.928 428.855L634.059 443.236L652.221 457.618L633.42 454.582Z" stroke="#1B2638" stroke-width="4.8739" stroke-miterlimit="10" stroke-linecap="round" stroke-linejoin="round"/>
<path d="M420.386 315.273L416.045 348.031L376.879 326.363L363.92 319.204L366.218 298.335L367.399 287.884L376.56 291.463L377.997 292.007L392.137 299.773L420.386 315.273Z" fill="white"/>
<path d="M492.877 327.865C492.877 327.865 486.716 319.619 485.918 315.497C485.12 311.374 480.332 309.648 478.608 313.994C476.885 318.341 476.438 324.86 476.438 324.86C476.438 324.86 478.162 330.965 482.535 331.38C486.908 331.796 492.877 327.865 492.877 327.865Z" fill="white"/>
<path d="M392.137 299.773C392.137 299.773 382.912 304.95 382.37 313.068C382.05 317.83 379.72 322.719 376.879 326.363L363.92 319.204L366.25 298.335C368.676 296.066 371.708 293.828 375.443 292.039C375.826 291.847 376.209 291.655 376.592 291.463L378.029 292.039L392.137 299.773Z" fill="#DAE4EA"/>
<path d="M561.983 439.785C560.579 411.789 558.791 377.497 557.674 365.544C557.515 363.818 557.355 362.572 557.259 361.837C555.376 351.195 553.716 345.953 544.332 343.844C540.693 343.045 535.905 342.693 529.457 342.693C503.378 342.693 415.63 348.798 415.63 348.798L431.718 395.33L487.769 409.679C487.769 409.679 505.996 403.511 512.476 399.325C512.603 402.744 513.465 411.565 514.103 419.81C514.391 423.486 514.742 426.873 515.125 429.27C515.412 431.028 512.316 457.554 510.433 473.182C509.635 479.829 509.06 484.495 509.06 484.495L522.467 486.189L563.803 491.43L563.963 480.34C563.931 480.34 563.069 462.028 561.983 439.785ZM512.922 397.503C512.922 396.992 512.922 397.087 512.954 397.631C512.954 397.599 512.922 397.535 512.922 397.503Z" fill="#65ABE0"/>
<path d="M563.931 480.34L563.771 491.43L522.435 486.189C517.519 482.801 513.146 478.519 510.401 473.15C509.284 470.944 508.422 468.58 507.943 465.991C503.123 440.743 507.943 417.062 507.943 417.062C507.943 417.062 510.209 418.085 514.072 419.778C523.839 424.061 543.693 432.658 561.983 439.785C563.069 462.028 563.931 480.34 563.931 480.34Z" fill="#4B8CC6"/>
<path d="M292.674 181.749C294.207 177.147 297.43 180.502 300.048 182.196C306.145 186.095 307.868 177.85 305.251 171.746C302.633 165.641 297.43 161.742 297.43 161.742C297.43 161.742 292.228 157.396 284.407 159.122C276.587 160.848 272.692 163.916 272.692 163.916C258.36 159.569 241.411 166.952 241.858 187.853C241.89 189.802 243.071 192.007 244.316 193.573C245.369 194.916 245.465 196.769 244.571 198.239C239.943 205.814 239.272 210.352 239.687 213.1C240.134 216.136 243.167 220.483 249.678 221.378C255.839 222.209 261.361 217.894 261.84 217.031C261.872 216.967 266.628 208.754 268.351 203.545C268.734 202.394 269.086 201.02 269.341 199.773C269.596 198.623 271.001 198.08 271.894 198.847C272.437 199.294 273.139 199.614 274.001 199.614C276.427 199.582 288.748 193.51 292.674 181.749Z" fill="#1B2638"/>
<path d="M334.937 257.587C335.639 256.916 336.628 256.596 337.586 256.724C346.077 257.939 354.727 262.988 358.685 265.289C359.387 265.673 366.41 270.786 366.952 271.393C369.857 274.685 380.423 281.844 387.796 290.537C397.5 301.946 376.688 292.454 373.464 306.644C371.293 316.2 366.505 319.268 366.505 319.268C366.505 319.268 355.206 308.402 348.694 297.951C342.182 287.501 332.191 288.395 329.159 276.219C326.765 266.599 332.415 259.984 334.937 257.587Z" fill="#98DAF4"/>
<path d="M354.28 291.368L356.387 264.906L376.113 290.313L357.855 302.457L377.997 299.933" stroke="#B6FCFF" stroke-width="4.8739" stroke-miterlimit="10" stroke-linecap="round" stroke-linejoin="round"/>
<path d="M334.937 257.587C335.639 256.916 336.628 256.596 337.586 256.724C346.077 257.939 354.727 262.988 358.685 265.289C359.387 265.673 366.41 270.786 366.952 271.393C369.857 274.685 380.423 281.844 387.796 290.537C397.5 301.946 376.688 292.454 373.464 306.644C371.293 316.2 366.505 319.268 366.505 319.268C366.505 319.268 355.206 308.402 348.694 297.951C342.182 287.501 332.191 288.395 329.159 276.219C326.765 266.599 332.415 259.984 334.937 257.587Z" stroke="#1B2638" stroke-width="4.8739" stroke-miterlimit="10" stroke-linecap="round" stroke-linejoin="round"/>
<path d="M296.569 260.495C296.569 274.429 288.301 273.982 280.481 273.119C272.661 272.256 257.882 261.39 258.328 260.943C258.775 260.495 263.116 236.143 263.531 229.623L263.978 228.76C263.978 228.76 279.715 232.34 289.195 239.658C292.93 242.534 295.675 246.018 296.122 250.077C296.441 252.889 296.537 254.327 296.537 256.852C296.569 257.811 296.569 258.993 296.569 260.495Z" fill="white"/>
<path d="M292.1 242.215C283.418 233.139 264.01 228.728 264.01 228.728" stroke="#1B2638" stroke-width="4.8739" stroke-miterlimit="10" stroke-linecap="round" stroke-linejoin="round"/>
<path d="M534.852 531.027L551.226 544.769L573.858 537.802" stroke="#FFF27D" stroke-width="6.0924" stroke-miterlimit="10" stroke-linecap="round" stroke-linejoin="round"/>
<path d="M296.569 256.82C280.034 256.692 275.885 243.525 275.885 243.525C275.885 243.525 282.205 240.968 289.227 239.626C292.962 242.502 295.707 245.986 296.154 250.045C296.441 252.825 296.537 254.295 296.569 256.82Z" fill="#DAE4EA"/>
<path d="M261.01 215.146C265.064 220.738 266.468 226.651 264.138 228.345C263.755 228.632 263.276 228.76 262.765 228.792C260.116 228.92 255.966 225.948 252.583 221.282C248.529 215.689 247.125 209.777 249.455 208.083C251.785 206.421 256.956 209.585 261.01 215.146Z" fill="white"/>
<path d="M295.898 248.702C285.716 249.15 276.587 245.251 273.969 243.493C271.352 241.767 258.328 222.177 258.328 222.177L258.105 219.652L256.573 201.307L267.011 182.164L283.96 168.23C283.96 168.23 295.26 165.609 296.569 167.783C297.59 169.476 300.144 173.503 301.261 175.229C301.58 175.74 301.772 176.06 301.772 176.06C301.772 176.06 302.027 179.064 302.41 183.123C302.602 185.232 302.825 187.661 303.08 190.09C303.719 196.418 304.421 202.905 304.804 204.759C305.666 208.658 308.698 213.899 309.145 220.866C309.624 227.865 306.113 248.255 295.898 248.702Z" fill="white"/>
<path d="M285.299 217.585C285.51 216.404 284.147 215.172 282.255 214.834C280.363 214.496 278.659 215.18 278.449 216.362C278.238 217.544 279.601 218.775 281.493 219.113C283.385 219.451 285.089 218.767 285.299 217.585Z" fill="#98DAF4"/>
<path d="M288.11 227.194C291.653 231.604 297.59 229.048 297.59 229.048" stroke="#1B2638" stroke-width="4.8739" stroke-miterlimit="10" stroke-linecap="round" stroke-linejoin="round"/>
<path d="M521.19 549.308C511.199 526.681 474.714 453.175 446.018 424.029C425.302 424.029 403.596 425.595 387.764 427.065C373.719 428.375 364.335 429.622 364.335 429.622L328.584 399.516V389.29L376.528 364.426C376.528 364.426 470.022 358.769 476.438 364.426C482.854 370.082 542.033 467.94 569.421 484.048C572.102 485.646 549.599 539.816 521.19 549.308Z" fill="#65ABE0"/>
<path d="M257.307 147.137C260.78 147.137 263.595 144.318 263.595 140.841C263.595 137.364 260.78 134.545 257.307 134.545C253.834 134.545 251.019 137.364 251.019 140.841C251.019 144.318 253.834 147.137 257.307 147.137Z" fill="#1B2638"/>
<path d="M265.127 154.967C266.855 154.967 268.256 153.565 268.256 151.835C268.256 150.105 266.855 148.703 265.127 148.703C263.4 148.703 261.999 150.105 261.999 151.835C261.999 153.565 263.4 154.967 265.127 154.967Z" fill="#1B2638"/>
<path d="M187.115 156.949C193.832 156.949 199.277 151.497 199.277 144.772C199.277 138.047 193.832 132.596 187.115 132.596C180.398 132.596 174.953 138.047 174.953 144.772C174.953 151.497 180.398 156.949 187.115 156.949Z" stroke="#98DAF4" stroke-width="4.8739" stroke-miterlimit="10"/>
<path d="M387.764 427.065C373.719 428.375 364.335 429.622 364.335 429.622L328.584 399.516V394.051L329.287 392.102L372.666 378.104C372.666 378.104 348.917 418.66 387.764 427.065Z" fill="#4B8CC6"/>
<path d="M263.978 228.728L263.531 229.591C263.244 234.097 261.074 247.073 259.605 254.839" stroke="#1B2638" stroke-width="4.8739" stroke-miterlimit="10" stroke-linecap="round" stroke-linejoin="round"/>
<path d="M391.722 258.738C397.24 258.738 401.713 254.259 401.713 248.734C401.713 243.21 397.24 238.731 391.722 238.731C386.204 238.731 381.731 243.21 381.731 248.734C381.731 254.259 386.204 258.738 391.722 258.738Z" stroke="#98DAF4" stroke-width="4.8739" stroke-miterlimit="10"/>
<path d="M415.598 356.66C412.917 358.002 375.411 382.067 356.036 390.216C350.322 392.613 345.31 394.85 341.735 396.64C326.095 404.47 289.387 395.969 276.14 380.117C260.499 361.421 259.51 366.311 256.605 359.248C251.402 346.656 256.381 334.288 256.158 334.448C256.094 334.512 254.562 331.923 252.232 327.737C243.677 312.365 224.398 275.548 227.494 270.051C230.399 264.874 239.464 262.637 246.997 261.646C252.487 260.943 257.179 260.911 258.137 260.911C258.265 260.911 258.328 260.911 258.328 260.911C258.328 260.911 286.737 259.153 309.432 257.875C310.135 257.843 310.805 257.811 311.475 257.747C321.817 257.172 330.723 256.692 334.777 256.564L353.035 287.884C353.035 287.884 357.919 308.338 363.888 316.967C370.272 326.235 384.061 330.677 390.382 335.311C399.926 342.278 414.066 350.236 414.066 350.236C414.066 350.236 419.078 354.902 415.598 356.66Z" fill="#98DAF4"/>
<path d="M334.809 256.564C346.811 256.149 353.067 287.884 353.067 287.884L334.809 256.564Z" fill="#98DAF4"/>
<path d="M356.068 390.216C350.354 392.613 345.342 394.85 341.767 396.64C326.127 404.47 289.419 395.969 276.172 380.117C260.531 361.421 259.541 366.311 256.637 359.248C251.434 346.656 256.413 334.288 256.19 334.448C256.126 334.512 254.594 331.923 252.264 327.737C254.083 325.596 255.232 324.317 255.232 324.317C255.232 324.317 260.85 343.269 288.142 343.556C315.433 343.844 317.061 336.845 326.127 341.831C334.33 346.305 328.68 381.3 356.068 390.216Z" fill="#82C0E0"/>
<path d="M578.933 306.516C579.508 292.358 580.114 284.688 583.051 289.993C585.987 295.298 587.775 306.516 588.349 301.179C588.924 295.842 588.924 259.313 594.829 263.435C600.702 267.558 612.481 287.596 611.332 320.61C610.151 353.623 618.993 292.326 621.355 297.024C623.717 301.754 621.355 312.365 627.834 312.365C634.314 312.365 633.708 297.024 640.794 301.179C647.848 305.302 646.093 322.4 652.572 312.365" stroke="white" stroke-width="4.8739" stroke-miterlimit="10" stroke-linecap="round" stroke-linejoin="round"/>
<path d="M315.784 257.523C324.275 257.044 331.33 256.692 334.809 256.564C334.809 256.564 338.065 256.532 341.735 257.587" stroke="#1B2638" stroke-width="4.8739" stroke-miterlimit="10" stroke-linecap="round" stroke-linejoin="round"/>
<path d="M297.59 282.451C281.502 282.004 255.424 266.791 247.029 261.646C252.519 260.943 257.211 260.911 258.169 260.911C258.297 260.911 258.36 260.911 258.36 260.911C258.36 260.911 286.769 259.153 309.464 257.875C310.167 257.843 310.837 257.811 311.507 257.747C311.507 257.747 316.551 264.746 319.838 270.754C323.094 276.762 316.966 282.994 297.59 282.451Z" fill="#65ABE0"/>
<path d="M353.067 287.884C353.067 287.884 356.387 302.713 361.973 313.899C366.984 323.966 384.093 330.677 390.413 335.279C399.958 342.246 407.778 362.252 407.778 362.252C407.778 362.252 417.833 357.043 414.353 358.769C410.874 360.495 357.408 388.778 341.767 396.608C326.127 404.438 289.419 395.937 276.172 380.085C260.531 361.389 259.541 366.279 256.637 359.216C251.434 346.624 246.646 331.252 246.422 331.412C246.071 331.636 223.631 277.018 227.526 270.051C231.228 263.467 244.858 261.614 252.711 261.103" stroke="#1B2638" stroke-width="4.8739" stroke-miterlimit="10" stroke-linecap="round" stroke-linejoin="round"/>
<path d="M406.405 277.434H491.472C493.579 277.434 495.175 279.351 494.792 281.428L480.332 359.184L391.722 364.394L403.054 280.342C403.277 278.712 404.714 277.434 406.405 277.434Z" fill="#1B2638"/>
<path d="M322.2 440.104V461.421" stroke="#1B2638" stroke-width="4.8739" stroke-miterlimit="10" stroke-linecap="round" stroke-linejoin="round"/>
<path d="M321.977 471.008C324.745 471.008 326.988 468.762 326.988 465.991C326.988 463.22 324.745 460.973 321.977 460.973C319.209 460.973 316.966 463.22 316.966 465.991C316.966 468.762 319.209 471.008 321.977 471.008Z" fill="#1B2638"/>
<path d="M332.766 353.687L355.206 348.51L374.773 352.537C374.773 352.537 375.922 357.139 370.751 357.139C365.58 357.139 358.653 355.413 358.653 355.413L343.683 360.015L318.945 361.741C318.945 361.773 329.319 354.263 332.766 353.687Z" fill="white"/>
<path d="M325.009 351.674L325.488 351.546L365.324 340.712L392.393 348.19C392.393 348.19 392.967 353.368 387.796 352.793C382.625 352.217 363.058 348.766 363.058 348.766L349.811 352.793C349.811 352.793 328.138 357.331 326.893 356.5" fill="white"/>
<path d="M325.009 348.222C325.009 348.222 347.449 340.744 350.928 340.744C354.408 340.744 387.764 351.706 387.764 351.706C387.764 351.706 388.339 354.007 384.317 354.007C380.295 354.007 367.048 352.281 365.324 352.281C363.601 352.281 337.714 352.601 337.714 352.601L325.009 348.222Z" fill="white"/>
<path d="M369.41 349.916L375.092 360.91C375.092 360.91 368.197 363.786 364.718 355.157C361.27 346.497 369.41 349.916 369.41 349.916Z" fill="white"/>
<path d="M320.445 369.443C320.445 369.443 350.928 363.786 351.503 361.485C352.078 359.184 352.652 356.883 353.801 355.157C354.95 353.432 340.427 343.333 340.427 343.333C340.427 343.333 318.051 349.053 308.858 349.629C297.718 350.364 306.623 368.293 320.445 369.443Z" fill="white"/>
<path d="M349.524 349.82L355.206 348.51L371.932 351.962" stroke="#1B2638" stroke-width="4.8739" stroke-miterlimit="10" stroke-linecap="round" stroke-linejoin="round"/>
<path d="M496.26 327.609L468.171 329.654C468.171 329.654 464.691 333.553 470.341 334.448C475.991 335.311 488.153 336.174 488.153 336.174L495.973 334.448C495.973 334.448 500.027 334.097 498.878 329.526C498.59 328.312 497.473 327.513 496.26 327.609Z" fill="white"/>
<path d="M497.282 349.661L470.341 351.834C470.341 351.834 466.862 355.733 472.512 356.628C478.162 357.522 487.291 358.353 487.291 358.353L495.111 356.628C495.111 356.596 500.314 356.18 497.282 349.661Z" fill="white"/>
<path d="M496.771 334.864L464.34 337.037C464.34 337.037 460.574 340.936 466.702 341.831C472.831 342.693 485.982 343.556 485.982 343.556L494.441 341.831C494.409 341.831 500.059 341.383 496.771 334.864Z" fill="white"/>
<path d="M496.771 342.693L464.34 344.867C464.34 344.867 460.574 348.766 466.702 349.661C472.831 350.555 485.982 351.386 485.982 351.386L494.441 349.661C494.409 349.661 500.059 349.213 496.771 342.693Z" fill="white"/>
<path d="M498.846 329.526C500.154 334.192 503.314 347.839 497.856 354.966C497.569 355.349 497.122 355.573 496.643 355.573L486.237 355.733C485.759 355.733 485.312 355.541 484.992 355.157C484.418 354.422 483.492 352.888 482.95 350.108C482.088 345.762 482.152 343.844 482.758 340.233C483.365 336.621 482.503 336.206 485.12 334.033C487.099 332.371 493.739 329.718 496.803 328.536C497.633 328.152 498.59 328.632 498.846 329.526Z" fill="white"/>
<path d="M303.112 190.122C299.314 187.501 295.643 190.218 290.153 194.916C283.386 200.732 274.64 198.144 274.64 198.144C274.64 198.144 277.576 186.542 280.162 181.014C282.747 175.485 286.035 176.188 292.866 173.695C295.483 172.736 298.548 173.727 301.293 175.293C301.612 175.804 301.804 176.124 301.804 176.124C301.804 176.124 302.059 179.128 302.442 183.187C302.633 185.296 302.857 187.693 303.112 190.122Z" fill="#DAE4EA"/>
<path d="M468.977 398.947C477.393 391.8 481.626 382.95 478.433 379.181C475.24 375.412 465.829 378.151 457.413 385.299C448.997 392.447 444.764 401.296 447.957 405.065C451.15 408.834 460.561 406.095 468.977 398.947Z" fill="white"/>
<path d="M563.931 546.751C563.931 546.751 562.462 552.791 565.495 555.412C565.495 555.412 588.956 564.967 597.223 564.552C605.49 564.136 652.381 548.445 652.381 548.445C652.381 548.445 654.105 536.268 638.911 537.994L604.15 541.893C604.15 541.893 587.647 541.446 581.55 541.893C575.486 542.341 563.931 546.751 563.931 546.751Z" fill="#1B2638"/>
<path d="M557.674 365.512C551.163 369.539 543.502 369.283 539.512 364.585C534.979 359.216 536.926 350.108 543.885 344.196C544.044 344.068 544.172 343.94 544.332 343.812C553.716 345.921 555.376 351.131 557.259 361.805C557.355 362.54 557.515 363.786 557.674 365.512Z" fill="white"/>
<path d="M638.911 537.994C637.921 537.994 636.229 538.442 634.091 539.177C633.261 539.464 632.399 539.784 631.441 540.135C621.802 543.779 606.831 550.842 603.288 551.481C600.256 552.024 585.221 550.33 574.592 548.988C573.762 548.892 572.964 548.796 572.198 548.668C567.25 548.029 563.739 547.55 563.739 547.55L563.899 533.744L579.795 528.726C584.902 527.096 589.53 524.252 593.297 520.417L599.617 513.961C599.617 513.961 615.003 520.609 619.791 525.402C624.579 530.164 638.911 537.994 638.911 537.994Z" fill="#FFDC4D"/>
<path d="M592.435 562.89C592.435 562.89 592.307 563.529 591.893 564.52H532.489V553.622H591.126L592.435 562.89Z" fill="#1B2638"/>
<path d="M634.059 539.177C633.229 539.464 632.367 539.784 631.41 540.135L611.491 528.119L604.278 545.217C604.15 545.505 603.926 545.728 603.639 545.824C603.352 545.92 603.033 545.888 602.745 545.728C596.138 542.021 586.37 536.588 583.785 535.214C582.412 536.971 578.327 543.14 574.56 548.988C573.73 548.892 572.932 548.796 572.166 548.668C572.421 548.253 574.783 544.578 577.209 540.934C582.763 532.561 582.923 532.593 583.817 532.817C584.008 532.849 584.487 532.977 602.713 543.203L609.927 526.074C610.055 525.786 610.278 525.562 610.598 525.466C610.885 525.37 611.236 525.402 611.491 525.562L634.059 539.177Z" fill="#FFF27D"/>
<path d="M295.866 202.202C295.866 202.202 295.898 213.676 297.718 219.077C298.069 220.099 299.09 220.738 300.176 220.611C302.059 220.387 305.283 219.524 304.932 216.488C304.389 212.078 295.866 202.202 295.866 202.202Z" fill="#FF8687"/>
<path d="M295.898 248.702C285.716 249.15 276.587 245.251 273.969 243.493" stroke="#1B2638" stroke-width="4.8739" stroke-miterlimit="10" stroke-linecap="round" stroke-linejoin="round"/>
<path d="M302.442 183.155C301.74 183.059 300.942 182.739 300.048 182.164C297.399 180.47 294.207 177.115 292.674 181.717C288.78 193.446 276.427 199.55 274.001 199.55C273.139 199.55 272.437 199.23 271.894 198.783C271.001 198.016 269.596 198.559 269.341 199.71C269.086 200.956 268.734 202.33 268.351 203.481C266.628 208.69 265.542 214.091 265.542 214.123C265.319 214.538 259.031 215.433 255.551 209.329L253.828 198.463L263.372 177.594L284.662 163.244C284.662 163.244 300.303 164.97 301.612 167.143C302.921 169.317 305.091 176.284 305.091 176.284C305.091 176.284 305.059 179.352 302.442 183.155Z" fill="#1B2638"/>
<path d="M264.17 228.345C263.787 228.632 263.308 228.76 262.797 228.792C260.148 228.92 255.998 225.948 252.615 221.282C248.561 215.689 247.156 209.777 249.487 208.083C250.859 207.092 253.253 207.763 255.807 209.681" stroke="#1B2638" stroke-width="4.8739" stroke-miterlimit="10" stroke-linecap="round" stroke-linejoin="round"/>
<path d="M324.531 368.772C324.531 368.772 253.126 390.951 248.338 391.814C243.55 392.677 225.738 391.367 224.015 388.778C222.897 387.084 220.663 358.449 219.258 338.443C218.492 327.545 217.95 319.172 217.95 319.172C226.217 305.685 259.446 322.815 259.446 322.815L257.02 341.351L255.232 354.998L317.444 348.766L324.531 368.772Z" fill="white"/>
<path d="M259.414 322.847L256.988 341.383C254.147 340.456 249.487 341.383 245.816 342.63C236.751 345.666 235.506 348.957 225.834 342.63C222.355 340.361 221.014 338.379 219.226 338.507C218.46 327.609 217.918 319.236 217.918 319.236C226.185 305.717 259.414 322.847 259.414 322.847Z" fill="#DAE4EA"/>
<path d="M211.438 330.517C213.609 311.821 221.429 284.848 221.876 278.744C222.323 272.64 235.346 260.463 247.061 266.567C258.775 272.672 267.49 282.675 267.043 293.956C266.596 305.27 263.148 333.106 258.36 334.416C255.296 335.247 258.52 327.673 243.581 332.243C239.655 333.457 235.601 343.333 223.823 329.558C217.279 321.92 211.438 330.517 211.438 330.517Z" fill="#98DAF4"/>
<path d="M213.257 317.957L265.287 311.917L219.833 286.51L253.796 270.754" stroke="#B6FCFF" stroke-width="4.8739" stroke-miterlimit="10" stroke-linecap="round" stroke-linejoin="round"/>
<path d="M258.36 334.416C261.233 338.443 266.628 305.27 267.043 293.956C267.49 282.643 258.903 270.978 247.188 264.906C235.474 258.802 224.557 269.859 221.876 278.744C220.12 284.592 213.609 311.789 211.438 330.517C211.438 330.517 216.003 324.413 223.855 329.59C231.707 334.768 231.707 339.849 239.911 334.448C248.114 329.047 255.424 330.357 258.36 334.416Z" stroke="#1B2638" stroke-width="4.8739" stroke-miterlimit="10" stroke-linecap="round" stroke-linejoin="round"/>
<path d="M255.232 354.998L294.047 351.131" stroke="#1B2638" stroke-width="4.8739" stroke-miterlimit="10" stroke-linecap="round" stroke-linejoin="round"/>
<path d="M258.36 260.911C258.36 260.911 278.438 277.402 303.016 274.909C317.795 273.407 302.346 258.258 302.346 258.258L281.024 256.085L258.36 260.911Z" fill="white"/>
<path d="M275.885 270.754C275.885 270.754 290.376 277.881 300.431 275.164" stroke="#1B2638" stroke-width="4.8739" stroke-miterlimit="10" stroke-linecap="round" stroke-linejoin="round"/>
<path d="M479.119 358.769H357.312C355.908 358.769 354.791 359.887 354.791 361.294V361.901C354.791 363.307 355.908 364.426 357.312 364.426H479.119C480.524 364.426 481.641 363.307 481.641 361.901V361.294C481.641 359.919 480.524 358.769 479.119 358.769Z" fill="#1B2638"/>
<path d="M476.438 364.426C480.715 368.197 508.549 413.099 534.724 447.327" stroke="#1B2638" stroke-width="4.8739" stroke-miterlimit="10" stroke-linecap="round" stroke-linejoin="round"/>
<path d="M467.213 321.665H423.546C421.727 321.665 420.259 320.194 420.259 318.373V317.606C420.259 315.784 421.727 314.314 423.546 314.314H467.213C469.032 314.314 470.501 315.784 470.501 317.606V318.373C470.501 320.163 469.032 321.665 467.213 321.665Z" fill="white"/>
<path d="M349.524 319.204C349.524 319.204 320.541 330.901 303.814 331.827" stroke="#1B2638" stroke-width="4.8739" stroke-miterlimit="10" stroke-linecap="round" stroke-linejoin="round"/>
<path d="M187.658 297.536C187.658 297.536 183.38 365.001 233.91 377.561C284.439 390.12 323.19 379.159 343.268 397.918C363.345 416.678 372.666 437.547 372.666 437.547C372.666 437.547 300.75 454.422 198.478 419.491C198.478 419.459 182.423 326.586 187.658 297.536Z" fill="#FF8687"/>
<path d="M186.349 279.607L184.083 236.942C184.083 236.942 201.032 220.067 227.175 213.388" stroke="#1B2638" stroke-width="4.8739" stroke-miterlimit="10" stroke-linecap="round" stroke-linejoin="round"/>
<path d="M207.193 361.837C213.704 368.964 222.387 374.684 233.91 377.561C265.415 385.391 292.355 384.08 313.039 386.541" stroke="#1B2638" stroke-width="4.8739" stroke-miterlimit="10" stroke-linecap="round" stroke-linejoin="round"/>
<path d="M507.751 521.28L521.19 549.308C521.19 549.308 533.862 546.208 538.554 537.93" stroke="#1B2638" stroke-width="4.8739" stroke-miterlimit="10" stroke-linecap="round" stroke-linejoin="round"/>
<path d="M508.837 564.52H711.21" stroke="#1B2638" stroke-width="4.8739" stroke-miterlimit="10" stroke-linecap="round" stroke-linejoin="round"/>
<path d="M192.478 564.52H463.51" stroke="#1B2638" stroke-width="4.8739" stroke-miterlimit="10" stroke-linecap="round" stroke-linejoin="round"/>
<path d="M80.183 564.52H125.637" stroke="#1B2638" stroke-width="4.8739" stroke-miterlimit="10" stroke-linecap="round" stroke-linejoin="round"/>
<path d="M145.683 564.52H170.261" stroke="#1B2638" stroke-width="4.8739" stroke-miterlimit="10" stroke-linecap="round" stroke-linejoin="round"/>
<path d="M477.044 564.52H494.76" stroke="#1B2638" stroke-width="4.8739" stroke-miterlimit="10" stroke-linecap="round" stroke-linejoin="round"/>
<path d="M377.997 428.024L434.655 424.157" stroke="#1B2638" stroke-width="4.8739" stroke-miterlimit="10" stroke-linecap="round" stroke-linejoin="round"/>
<path d="M508.837 455.125C511.093 455.125 512.922 453.293 512.922 451.034C512.922 448.775 511.093 446.943 508.837 446.943C506.58 446.943 504.751 448.775 504.751 451.034C504.751 453.293 506.58 455.125 508.837 455.125Z" fill="#B0ECFF"/>
<path d="M460.733 476.409C461.435 476.345 472.001 476.409 475.129 470.689C478.321 464.808 475.863 462.891 475.863 462.891" stroke="#B0ECFF" stroke-width="4.8739" stroke-miterlimit="10"/>
<path d="M444.39 517.54C444.39 517.54 418.088 485.422 437.336 472.606C456.584 459.759 452.402 453.015 456.584 436.333C460.765 419.65 492.174 397.791 498.59 422.846C505.006 447.902 488.982 447.263 496.994 458.48C505.006 469.73 484.801 488.01 480.332 495.713C475.863 503.415 478.385 521.408 444.39 517.54Z" fill="#B0ECFF"/>
<path d="M453.743 499.803C453.743 499.803 447.486 492.485 450.391 484.687" stroke="white" stroke-width="4.8739" stroke-miterlimit="10" stroke-linecap="round" stroke-linejoin="round"/>
<path d="M437.336 538.314C439.091 537.515 453.328 522.814 462.457 529.237C471.586 535.661 466.16 551.353 452.753 545.92C439.379 540.519 437.336 538.314 437.336 538.314Z" stroke="#1B2638" stroke-width="4.8739" stroke-miterlimit="10" stroke-linecap="round" stroke-linejoin="round"/>
<path d="M435.516 545.409C435.516 545.409 425.27 523.389 410.587 526.393C395.904 529.397 400.468 546.367 414.864 543.363C429.26 540.391 435.516 545.409 435.516 545.409Z" stroke="#1B2638" stroke-width="4.8739" stroke-miterlimit="10" stroke-linecap="round" stroke-linejoin="round"/>
<path d="M463.51 476.218C463.51 476.218 472.991 476.857 475.129 466.151" stroke="white" stroke-width="4.8739" stroke-miterlimit="10" stroke-linecap="round" stroke-linejoin="round"/>
<path d="M433.825 564.105C432.165 542.5 446.656 512.811 454.285 498.813C459.169 489.896 462.808 480.34 464.947 470.401C465.872 466.151 466.575 461.581 466.862 457.17C467.819 441.127 478.896 432.114 482.662 433.425" stroke="#1B2638" stroke-width="4.8739" stroke-miterlimit="10" stroke-linecap="round" stroke-linejoin="round"/>
<path d="M386.998 463.69C382.848 462.891 367.655 463.083 361.781 507.058C361.781 507.058 377.614 515.655 382.306 502.68C386.998 489.704 388.083 486.668 388.083 486.668C388.083 486.668 387.221 501.05 396.191 494.211C405.16 487.371 408.321 472.702 408.321 472.702C408.321 472.702 401.777 465.032 389.903 464.073C388.945 464.009 387.956 463.882 386.998 463.69Z" fill="#B0ECFF"/>
<path d="M394.755 471.584C394.755 471.584 375.507 472.287 372.091 488.426" stroke="white" stroke-width="4.8739" stroke-miterlimit="10" stroke-linecap="round" stroke-linejoin="round"/>
<path d="M436.506 541.382C435.548 540.647 428.047 523.964 424.217 508.752C420.386 493.539 412.885 458.225 380.167 464.776" stroke="#1B2638" stroke-width="4.8739" stroke-miterlimit="10" stroke-linecap="round" stroke-linejoin="round"/>
<path d="M320.892 530.516C320.892 530.516 329.382 525.083 322.552 513.098C315.753 501.114 309.528 492.485 323.764 495.361C338.001 498.237 344.64 527.48 332.383 531.89C320.126 536.3 320.892 530.516 320.892 530.516Z" fill="#FF8687"/>
<path d="M347.002 541.606C349.4 541.606 351.343 539.66 351.343 537.259C351.343 534.859 349.4 532.913 347.002 532.913C344.605 532.913 342.661 534.859 342.661 537.259C342.661 539.66 344.605 541.606 347.002 541.606Z" fill="#FF8687"/>
<path d="M304.74 495.713C304.74 495.713 316.04 533.776 296.728 541.062C277.417 548.349 252.679 523.101 248.816 508.56C244.954 494.019 253.413 494.882 258.265 500.794C263.116 506.738 282.779 517.061 282.779 517.061L289.961 518.148L294.366 512.97L296.313 503.095C296.313 503.127 300.495 483.568 304.74 495.713Z" fill="#FF8687"/>
<path d="M253.221 503.447C253.221 503.447 261.616 521.184 280.832 525.275" stroke="#1B2638" stroke-width="4.8739" stroke-miterlimit="10" stroke-linecap="round" stroke-linejoin="round"/>
<path d="M323.765 564.488C323.765 564.488 323.445 521.088 313.103 506.738C302.506 492.037 301.74 487.403 298.133 496.064C294.526 504.725 296.984 527.224 279.045 515.176C261.106 503.127 254.977 498.365 254.977 498.365" stroke="#1B2638" stroke-width="4.8739" stroke-miterlimit="10" stroke-linecap="round" stroke-linejoin="round"/>
<path d="M628.186 46.1472H499.612V42.3441C499.612 33.7791 506.538 26.812 515.125 26.812H612.672C621.227 26.812 628.186 33.7471 628.186 42.3441V46.1472Z" fill="#98DAF4"/>
<path d="M635.495 49.4709L666.713 63.7245" stroke="#1B2638" stroke-width="4.8739" stroke-miterlimit="10" stroke-linecap="round" stroke-linejoin="round"/>
<path d="M599.138 70.8514C597.255 73.9514 594.191 77.6906 589.435 80.471C579.827 86.0958 521.541 105.782 521.541 105.782L536.862 70.8514H599.138Z" fill="#FF5758"/>
<path d="M492.334 49.4709L461.116 63.7245" stroke="#1B2638" stroke-width="4.8739" stroke-miterlimit="10" stroke-linecap="round" stroke-linejoin="round"/>
<path d="M469.288 268.805C468.043 268.805 466.766 268.389 465.745 267.526C463.319 265.545 462.968 261.997 464.915 259.568L498.75 217.862C500.569 215.625 503.761 215.114 506.155 216.648L547.651 243.11L588.573 170.531C590.041 167.942 593.265 166.92 595.946 168.23L625.568 182.548L650.083 131.509C651.423 128.697 654.807 127.514 657.616 128.857C660.425 130.199 661.606 133.587 660.265 136.399L633.293 192.519C632.654 193.861 631.473 194.916 630.069 195.395C628.664 195.906 627.1 195.811 625.76 195.139L595.819 180.662L554.578 253.816C553.812 255.158 552.535 256.149 551.035 256.532C549.535 256.916 547.939 256.66 546.63 255.829L504.368 228.888L473.725 266.695C472.544 268.102 470.916 268.805 469.288 268.805Z" fill="white"/>
<path d="M671.724 143.398L669.299 111.279C669.107 108.691 666.17 107.253 664 108.723L637.442 126.907C635.304 128.377 635.527 131.637 637.889 132.756L666.905 146.722C669.235 147.84 671.916 146.019 671.724 143.398Z" fill="white"/>
<path d="M678.013 237.325V283.474L660.967 235.695C660.967 235.695 669.139 236.111 678.013 237.325Z" fill="#FF5758"/>
<path d="M667 212.142L679.066 228.824" stroke="#1B2638" stroke-width="4.8739" stroke-miterlimit="10" stroke-linecap="round" stroke-linejoin="round"/>
<path d="M690.882 213.418L660.93 235.696L694.144 280.461L724.096 258.183L690.882 213.418Z" fill="#FFDC4D"/>
<path d="M675.268 246.945C675.268 246.945 678.555 225.692 685.737 234.673C692.919 243.621 680.087 272.288 693.047 260.623C706.007 248.958 703.006 240.425 697.771 242.215" stroke="#1B2638" stroke-width="4.8739" stroke-miterlimit="10" stroke-linecap="round" stroke-linejoin="round"/>
<path d="M655.764 369.635C658.638 369.635 660.967 367.303 660.967 364.426C660.967 361.549 658.638 359.216 655.764 359.216C652.891 359.216 650.561 361.549 650.561 364.426C650.561 367.303 652.891 369.635 655.764 369.635Z" fill="white"/>
<path d="M631.441 369.635C634.315 369.635 636.644 367.303 636.644 364.426C636.644 361.549 634.315 359.216 631.441 359.216C628.568 359.216 626.238 361.549 626.238 364.426C626.238 367.303 628.568 369.635 631.441 369.635Z" fill="white"/>
<path d="M487.355 180.918C470.182 222.017 423.451 208.37 423.451 208.37C423.451 208.37 436.314 181.781 450.136 170.979C463.957 160.144 474.491 164.555 474.491 164.555L475.129 165.354L486.269 179.543L487.355 180.918Z" fill="#FFDC4D"/>
<path d="M494.856 175.772L493.164 177.179L489.94 179.831L489.621 180.119L474.906 162.254L477.523 160.081L480.141 157.907L494.856 175.772Z" fill="#98DAF4"/>
<path d="M493.164 177.179L489.94 179.831L477.523 160.081L493.164 177.179Z" fill="#4B8CC6"/>
<path d="M492.366 178.105L477.395 159.921C475.512 157.62 475.831 154.232 478.13 152.346L479.215 151.452L501.016 177.914L499.931 178.808C497.633 180.726 494.249 180.406 492.366 178.105Z" fill="#98DAF4"/>
<path d="M512.571 109.106C512.571 109.106 510.816 114.379 507.879 120.771C502.74 131.989 493.962 146.53 484.929 141.289C480.651 138.796 475.448 138.221 470.277 138.636C458.371 139.563 446.625 145.731 446.625 145.731L469.415 115.849C475.097 108.403 484.418 104.664 493.675 106.134L512.571 109.106Z" fill="#65ABE0"/>
<path d="M548.896 153.209L548.258 172.321C547.939 181.717 542.512 190.154 534.117 194.34L500.474 211.087C500.474 211.087 508.039 201.627 511.486 190.729C513.21 185.264 513.912 179.448 512.124 174.27C511.326 172.001 511.582 169.956 512.539 168.102C518.157 157.236 548.896 153.209 548.896 153.209Z" fill="#65ABE0"/>
<path d="M508.709 115.05L507.879 120.771C502.74 131.989 493.962 146.53 484.929 141.289C480.651 138.796 475.448 138.221 470.277 138.636C482.024 128.633 508.709 115.05 508.709 115.05Z" fill="#4B8CC6"/>
<path d="M548.449 166.6L548.258 172.321C547.939 181.717 542.512 190.154 534.117 194.34L528.404 197.185" stroke="#1B2638" stroke-width="4.8739" stroke-miterlimit="10" stroke-linecap="round" stroke-linejoin="round"/>
<path d="M522.658 162.35L543.789 157.268C543.342 158.003 529.776 180.502 511.486 190.697C513.21 185.232 513.912 179.416 512.124 174.238C511.326 171.969 511.582 169.924 512.539 168.07C516.402 165.482 522.658 162.35 522.658 162.35Z" fill="#4B8CC6"/>
<path d="M604.916 89.803C594.478 108.723 572.326 133.842 550.365 151.995C547.715 154.168 544.906 156.405 541.97 158.642C536.416 162.893 530.415 167.111 524.605 170.947C522.498 172.321 520.392 173.663 518.349 174.941C514.902 177.051 511.582 178.968 508.517 180.598C505.453 182.228 501.655 181.461 499.452 178.776L493.994 172.129L489.046 166.121L478.066 152.794C475.863 150.109 475.831 146.242 478.002 143.526C485.216 134.545 496.101 123.52 506.57 114.22C509.092 111.982 511.582 109.841 514.008 107.828C535.969 89.6751 564.824 72.673 585.349 66.0256C596.808 62.3183 605.682 61.839 609.289 66.1854C612.896 70.5957 610.757 79.2246 604.916 89.803Z" fill="#FFDC4D"/>
<path d="M604.916 89.803C594.478 108.723 572.326 133.842 550.365 151.995C547.715 154.168 544.906 156.405 541.97 158.642C525.116 146.466 514.263 129.368 508.39 117.863C507.719 116.585 507.145 115.37 506.602 114.252C509.124 112.014 511.614 109.873 514.04 107.86C514.71 107.284 515.412 106.741 516.083 106.198C528.021 96.5463 541.778 87.3102 555.089 79.8957C559.685 77.339 564.218 74.9741 568.623 72.8967C574.592 70.0844 580.242 67.7514 585.413 66.0895C596.872 62.3823 605.746 61.9029 609.353 66.2493C612.896 70.5957 610.757 79.2246 604.916 89.803Z" fill="#98DAF4"/>
<path d="M558.408 177.658C558.408 177.658 558.536 178.553 558.568 179.991" stroke="#1B2638" stroke-width="4.8739" stroke-linecap="round" stroke-linejoin="round"/>
<path d="M558.345 184.401C557.515 190.473 554.227 198.751 542.895 201.116" stroke="#1B2638" stroke-width="4.8739" stroke-linecap="round" stroke-linejoin="round" stroke-dasharray="13.93 13.93"/>
<path d="M540.693 201.499C539.959 201.595 539.161 201.659 538.363 201.723" stroke="#1B2638" stroke-width="4.8739" stroke-linecap="round" stroke-linejoin="round"/>
<path d="M466.607 108.371C466.607 108.371 465.713 108.307 464.276 108.371" stroke="#1B2638" stroke-width="4.8739" stroke-linecap="round" stroke-linejoin="round"/>
<path d="M459.871 108.946C453.902 110.225 445.89 114.124 444.358 125.597" stroke="#1B2638" stroke-width="4.8739" stroke-linecap="round" stroke-linejoin="round" stroke-dasharray="13.93 13.93"/>
<path d="M444.167 127.834C444.135 128.569 444.103 129.368 444.135 130.167" stroke="#1B2638" stroke-width="4.8739" stroke-linecap="round" stroke-linejoin="round"/>
<path d="M553.493 129.496C562.959 129.496 570.634 121.812 570.634 112.334C570.634 102.856 562.959 95.1721 553.493 95.1721C544.026 95.1721 536.352 102.856 536.352 112.334C536.352 121.812 544.026 129.496 553.493 129.496Z" fill="#1B2638"/>
<path d="M553.493 123.232C559.504 123.232 564.377 118.353 564.377 112.334C564.377 106.315 559.504 101.436 553.493 101.436C547.481 101.436 542.608 106.315 542.608 112.334C542.608 118.353 547.481 123.232 553.493 123.232Z" fill="white"/>
<path d="M610.119 77.8823C609.097 81.4298 607.342 85.4566 604.916 89.803C599.649 88.6525 594.733 85.8081 591.031 81.3019C587.328 76.8277 585.477 71.4266 585.349 66.0575C589.53 64.7153 593.361 63.7885 596.712 63.373C602.586 62.6379 606.991 63.4689 609.289 66.2493C611.428 68.806 611.555 72.8328 610.119 77.8823Z" fill="#FFDC4D"/>
<path d="M486.269 179.543C473.948 203.64 444.901 195.171 444.901 195.171C444.901 195.171 453.487 177.466 462.712 170.243C467.788 166.281 472.193 165.386 475.129 165.386L486.269 179.543Z" fill="#EAB853"/>
<path d="M587.839 76.3163C587.839 76.3163 593.233 88.1411 604.948 89.739" stroke="#1B2638" stroke-width="4.8739" stroke-miterlimit="10" stroke-linecap="round" stroke-linejoin="round"/>
<path d="M504.304 116.329C504.304 116.329 481.226 137.55 478.8 142.631" stroke="#1B2638" stroke-width="4.8739" stroke-miterlimit="10" stroke-linecap="round" stroke-linejoin="round"/>
<path d="M544.332 157.14L543.789 157.268V157.236L544.332 157.14Z" fill="#4B8CC6"/>
<path d="M508.358 154.392L493.994 172.161L489.046 166.153L508.358 154.392Z" fill="#EAB853"/>
<path d="M482.95 173.951L477.332 175.261L479.662 169.988L509.635 143.462C511.295 141.992 513.88 142.184 515.285 143.909C516.689 145.635 516.402 148.192 514.646 149.566L482.95 173.951Z" fill="#4B8CC6"/>
<path d="M510.177 152.986L488.982 168.326" stroke="#1B2638" stroke-width="4.8739" stroke-miterlimit="10" stroke-linecap="round" stroke-linejoin="round"/>
<path d="M511.805 124.127C511.805 124.127 520.711 139.147 526.01 144.005" stroke="#1B2638" stroke-width="4.8739" stroke-miterlimit="10" stroke-linecap="round" stroke-linejoin="round"/>
<path d="M479.821 107.764C479.821 107.764 471.458 111.024 461.276 126.524" stroke="#1B2638" stroke-width="4.8739" stroke-miterlimit="10" stroke-linecap="round" stroke-linejoin="round"/>
<path d="M461.404 164.842C461.404 164.842 447.55 168.614 437.176 185.36" stroke="#1B2638" stroke-width="4.8739" stroke-miterlimit="10" stroke-linecap="round" stroke-linejoin="round"/>
<path d="M430.732 174.839C434.23 174.581 436.938 172.63 436.78 170.483C436.622 168.335 433.657 166.804 430.159 167.062C426.66 167.321 423.952 169.271 424.11 171.419C424.269 173.566 427.233 175.098 430.732 174.839Z" fill="#FFDC4D"/>
<path d="M459.572 222.997C459.919 220.355 458.883 218.039 457.258 217.825C455.632 217.611 454.033 219.579 453.686 222.221C453.338 224.863 454.374 227.179 456 227.393C457.625 227.608 459.224 225.639 459.572 222.997Z" fill="#FFDC4D"/>
<path d="M587.105 85.7442C587.615 86.1597 595.053 92.903 589.243 93.8617C583.434 94.8205 575.262 90.5061 578.135 98.304" stroke="white" stroke-width="6.0924" stroke-miterlimit="10" stroke-linecap="round" stroke-linejoin="round"/>
<path d="M589.052 192.647L562.239 240.265" stroke="#1B2638" stroke-width="4.8739" stroke-miterlimit="10" stroke-linecap="round" stroke-linejoin="round"/>
<path d="M499.101 330.517C499.101 330.517 502.644 341.223 499.101 351.962" stroke="#1B2638" stroke-width="4.8739" stroke-miterlimit="10" stroke-linecap="round" stroke-linejoin="round"/>
<path d="M471.873 336.525L487.833 335.758" stroke="#1B2638" stroke-width="4.8739" stroke-miterlimit="10" stroke-linecap="round" stroke-linejoin="round"/>
<path d="M392.137 299.773L404.267 306.484" stroke="#1B2638" stroke-width="4.8739" stroke-miterlimit="10" stroke-linecap="round" stroke-linejoin="round"/>
</svg>
